<svg width="46.492767" height="80.491028" viewBox="0 0 46.4928 80.491" fill="none" xmlns="http://www.w3.org/2000/svg" xmlns:xlink="http://www.w3.org/1999/xlink">
	<desc>
			Created with Pixso.
	</desc>
	<defs/>
	<path id="path" d="M0.62 22.77C0.83 22.64 1.01 22.56 1.18 22.47C4.9 20.45 8.58 17.96 12.17 14.57C14.55 12.34 16.76 9.68 18.75 6.5C19.57 5.17 20.31 3.79 20.95 2.33C21 2.25 21 2.21 21.04 2.12C21.08 2.12 21.13 2.12 21.13 2.16C22.43 3.75 24.11 4.52 25.97 4.87C28.09 5.25 30.34 4.95 32.68 4.31C35.49 3.54 38.31 2.29 41.16 0.7C41.25 0.66 41.33 0.62 41.46 0.57C41.46 0.57 41.51 0.57 41.55 0.57C41.55 0.7 41.55 0.87 41.55 1.05C41.55 5.47 41.55 9.89 41.55 14.36C41.55 18.74 41.55 23.16 41.55 27.54C41.51 30.84 41.42 34.24 41.12 37.67C40.9 40.16 40.6 42.65 39.99 45.23C39.34 47.97 38.39 50.64 37.31 53.26C35.41 58.02 33.03 62.36 30.34 66.39C27.66 70.43 24.76 73.99 21.73 77.13C21.3 77.6 20.87 77.81 20.43 77.86C15.98 78.11 11.95 77.17 8.45 74.64C6.07 72.92 4.12 70.47 2.65 67.21C2 65.75 1.61 64.07 1.35 62.23C0.96 59.65 0.79 56.95 0.7 54.16C0.57 49.73 0.57 45.18 0.57 40.68C0.57 35.74 0.57 30.84 0.57 25.91C0.57 25 0.57 24.1 0.57 23.2C0.62 23.12 0.62 22.94 0.62 22.77ZM4.81 26.34C4.81 26.55 4.81 26.76 4.81 26.94C4.81 32.99 4.81 39 4.81 45.05C4.81 49.18 4.9 53.21 5.25 57.12C5.42 58.97 5.77 60.64 6.29 62.14C7.15 64.55 8.45 66.31 10.05 67.6C13.17 70.17 16.71 71.55 20.74 71.59C21 71.59 21.21 71.46 21.47 71.2C24.16 68.24 26.67 64.89 28.96 61.2C30.69 58.41 32.29 55.53 33.68 52.4C35.45 48.4 36.57 44.37 36.92 40.29C37.18 37.37 37.31 34.54 37.35 31.7C37.4 28.83 37.4 25.99 37.4 23.16C37.4 18.52 37.4 13.88 37.4 9.25C37.4 9.03 37.4 8.82 37.35 8.65C37.31 8.65 37.27 8.65 37.27 8.65C37.01 8.77 36.7 8.86 36.44 8.99C34.06 10.02 31.73 10.75 29.43 11.14C26.49 11.65 23.77 11.48 21.3 10.32C21.21 10.28 21.17 10.28 21.08 10.28C20.95 10.45 20.87 10.62 20.74 10.79C19.61 12.55 18.4 14.18 17.15 15.69C13.81 19.64 10.31 22.6 6.68 25.13C6.07 25.48 5.46 25.86 4.81 26.34Z" fill="#000000" fill-opacity="0" fill-rule="nonzero"/>
	<path id="path" d="M1.18 22.47C4.9 20.45 8.58 17.96 12.17 14.57C14.55 12.34 16.76 9.68 18.75 6.5C19.57 5.17 20.31 3.79 20.95 2.33C21 2.25 21 2.21 21.04 2.12C21.08 2.12 21.13 2.12 21.13 2.16C22.43 3.75 24.11 4.52 25.97 4.87C28.09 5.25 30.34 4.95 32.68 4.31C35.49 3.54 38.31 2.29 41.16 0.7C41.25 0.66 41.33 0.62 41.46 0.57C41.46 0.57 41.51 0.57 41.55 0.57C41.55 0.7 41.55 0.87 41.55 1.05C41.55 5.47 41.55 9.89 41.55 14.36C41.55 18.74 41.55 23.16 41.55 27.54C41.51 30.84 41.42 34.24 41.12 37.67C40.9 40.16 40.6 42.65 39.99 45.23C39.34 47.97 38.39 50.64 37.31 53.26C35.41 58.02 33.03 62.36 30.34 66.39C27.66 70.43 24.76 73.99 21.73 77.13C21.3 77.6 20.87 77.81 20.43 77.86C15.98 78.11 11.95 77.17 8.45 74.64C6.07 72.92 4.12 70.47 2.65 67.21C2 65.75 1.61 64.07 1.35 62.23C0.96 59.65 0.79 56.95 0.7 54.16C0.57 49.73 0.57 45.18 0.57 40.68C0.57 35.74 0.57 30.84 0.57 25.91C0.57 25 0.57 24.1 0.57 23.2C0.62 23.12 0.62 22.94 0.62 22.77C0.83 22.64 1.01 22.56 1.18 22.47ZM4.81 26.94C4.81 32.99 4.81 39 4.81 45.05C4.81 49.18 4.9 53.21 5.25 57.12C5.42 58.97 5.77 60.64 6.29 62.14C7.15 64.55 8.45 66.31 10.05 67.6C13.17 70.17 16.71 71.55 20.74 71.59C21 71.59 21.21 71.46 21.47 71.2C24.16 68.24 26.67 64.89 28.96 61.2C30.69 58.41 32.29 55.53 33.68 52.4C35.45 48.4 36.57 44.37 36.92 40.29C37.18 37.37 37.31 34.54 37.35 31.7C37.4 28.83 37.4 25.99 37.4 23.16C37.4 18.52 37.4 13.88 37.4 9.25C37.4 9.03 37.4 8.82 37.35 8.65C37.31 8.65 37.27 8.65 37.27 8.65C37.01 8.77 36.7 8.86 36.44 8.99C34.06 10.02 31.73 10.75 29.43 11.14C26.49 11.65 23.77 11.48 21.3 10.32C21.21 10.28 21.17 10.28 21.08 10.28C20.95 10.45 20.87 10.62 20.74 10.79C19.61 12.55 18.4 14.18 17.15 15.69C13.81 19.64 10.31 22.6 6.68 25.13C6.07 25.48 5.46 25.86 4.81 26.34C4.81 26.55 4.81 26.76 4.81 26.94Z" stroke="#FFFFFF" stroke-opacity="1.000000" stroke-width="1.158600"/>
	<path id="path" d="M4.56 24.36C4.77 24.23 4.94 24.15 5.12 24.06C8.84 22.04 12.52 19.55 16.11 16.16C18.49 13.93 20.69 11.27 22.68 8.09C23.51 6.76 24.24 5.38 24.89 3.92C24.93 3.84 24.93 3.79 24.98 3.71C25.02 3.71 25.06 3.71 25.06 3.75C26.36 5.34 28.05 6.11 29.91 6.46C32.03 6.84 34.28 6.54 36.62 5.9C39.43 5.13 42.24 3.88 45.1 2.29C45.18 2.25 45.27 2.21 45.4 2.16C45.4 2.16 45.44 2.16 45.49 2.16C45.49 2.29 45.49 2.46 45.49 2.64C45.49 7.06 45.49 11.48 45.49 15.95C45.49 20.32 45.49 24.75 45.49 29.13C45.44 32.43 45.36 35.82 45.06 39.26C44.84 41.75 44.54 44.24 43.93 46.82C43.28 49.56 42.33 52.22 41.25 54.84C39.34 59.61 36.96 63.95 34.28 67.98C31.6 72.02 28.7 75.58 25.67 78.72C25.24 79.19 24.81 79.4 24.37 79.45C19.92 79.7 15.89 78.76 12.39 76.23C10.01 74.51 8.06 72.06 6.59 68.8C5.94 67.34 5.55 65.66 5.29 63.82C4.9 61.24 4.73 58.54 4.64 55.75C4.51 51.32 4.51 46.77 4.51 42.26C4.51 37.33 4.51 32.43 4.51 27.49C4.51 26.59 4.51 25.69 4.51 24.79C4.51 24.7 4.56 24.53 4.56 24.36ZM8.71 27.88C8.71 28.1 8.71 28.31 8.71 28.48C8.71 34.54 8.71 40.55 8.71 46.6C8.71 50.72 8.8 54.76 9.14 58.67C9.31 60.51 9.66 62.19 10.18 63.69C11.05 66.09 12.34 67.85 13.94 69.14C17.06 71.72 20.61 73.09 24.63 73.13C24.89 73.13 25.11 73.01 25.37 72.75C28.05 69.79 30.56 66.44 32.85 62.74C34.58 59.95 36.18 57.08 37.57 53.94C39.34 49.95 40.47 45.91 40.81 41.83C41.07 38.92 41.2 36.08 41.25 33.25C41.29 30.37 41.29 27.54 41.29 24.7C41.29 20.07 41.29 15.43 41.29 10.79C41.29 10.58 41.29 10.36 41.25 10.19C41.2 10.19 41.16 10.19 41.16 10.19C40.9 10.32 40.6 10.41 40.34 10.54C37.96 11.57 35.62 12.3 33.33 12.68C30.39 13.2 27.66 13.03 25.19 11.87C25.11 11.82 25.06 11.82 24.98 11.82C24.85 12 24.76 12.17 24.63 12.34C23.51 14.1 22.3 15.73 21.04 17.23C17.71 21.18 14.2 24.15 10.57 26.68C9.96 27.07 9.36 27.45 8.71 27.88Z" fill="#000000" fill-opacity="0" fill-rule="nonzero"/>
	<path id="path" d="M5.12 24.06C8.84 22.04 12.52 19.55 16.11 16.16C18.49 13.93 20.69 11.27 22.68 8.09C23.51 6.76 24.24 5.38 24.89 3.92C24.93 3.84 24.93 3.79 24.98 3.71C25.02 3.71 25.06 3.71 25.06 3.75C26.36 5.34 28.05 6.11 29.91 6.46C32.03 6.84 34.28 6.54 36.62 5.9C39.43 5.13 42.24 3.88 45.1 2.29C45.18 2.25 45.27 2.21 45.4 2.16C45.4 2.16 45.44 2.16 45.49 2.16C45.49 2.29 45.49 2.46 45.49 2.64C45.49 7.06 45.49 11.48 45.49 15.95C45.49 20.32 45.49 24.75 45.49 29.13C45.44 32.43 45.36 35.82 45.06 39.26C44.84 41.75 44.54 44.24 43.93 46.82C43.28 49.56 42.33 52.22 41.25 54.84C39.34 59.61 36.96 63.95 34.28 67.98C31.6 72.02 28.7 75.58 25.67 78.72C25.24 79.19 24.81 79.4 24.37 79.45C19.92 79.7 15.89 78.76 12.39 76.23C10.01 74.51 8.06 72.06 6.59 68.8C5.94 67.34 5.55 65.66 5.29 63.82C4.9 61.24 4.73 58.54 4.64 55.75C4.51 51.32 4.51 46.77 4.51 42.26C4.51 37.33 4.51 32.43 4.51 27.49C4.51 26.59 4.51 25.69 4.51 24.79C4.51 24.7 4.56 24.53 4.56 24.36C4.77 24.23 4.94 24.15 5.12 24.06ZM8.71 28.48C8.71 34.54 8.71 40.55 8.71 46.6C8.71 50.72 8.8 54.76 9.14 58.67C9.31 60.51 9.66 62.19 10.18 63.69C11.05 66.09 12.34 67.85 13.94 69.14C17.06 71.72 20.61 73.09 24.63 73.13C24.89 73.13 25.11 73.01 25.37 72.75C28.05 69.79 30.56 66.44 32.85 62.74C34.58 59.95 36.18 57.08 37.57 53.94C39.34 49.95 40.47 45.91 40.81 41.83C41.07 38.92 41.2 36.08 41.25 33.25C41.29 30.37 41.29 27.54 41.29 24.7C41.29 20.07 41.29 15.43 41.29 10.79C41.29 10.58 41.29 10.36 41.25 10.19C41.2 10.19 41.16 10.19 41.16 10.19C40.9 10.32 40.6 10.41 40.34 10.54C37.96 11.57 35.62 12.3 33.33 12.68C30.39 13.2 27.66 13.03 25.19 11.87C25.11 11.82 25.06 11.82 24.98 11.82C24.85 12 24.76 12.17 24.63 12.34C23.51 14.1 22.3 15.73 21.04 17.23C17.71 21.18 14.2 24.15 10.57 26.68C9.96 27.07 9.36 27.45 8.71 27.88C8.71 28.1 8.71 28.31 8.71 28.48Z" stroke="#FFFFFF" stroke-opacity="1.000000" stroke-width="2.000000"/>
	<path id="polygon" d="M13.69 49.78L22.94 54.84L36.27 27.28L33.33 25.35L21.91 48.62L15.55 45.31L13.69 49.78Z" fill="#000000" fill-opacity="0" fill-rule="nonzero"/>
	<path id="polygon" d="M22.94 54.84L36.27 27.28L33.33 25.35L21.91 48.62L15.55 45.31L13.69 49.78L22.94 54.84Z" stroke="#FFFFFF" stroke-opacity="1.000000" stroke-width="1.000000"/>
	<g opacity="0.240000">
		<path id="polygon" d="M12.43 52.87L23.51 58.97L37.74 29.17L33.59 26.42L22.04 50.16L15.11 46.47L12.43 52.87Z" fill="#FFFFFF" fill-opacity="1.000000" fill-rule="nonzero"/>
	</g>
</svg>
