<svg width="515.000000" height="381.099976" viewBox="0 0 515 381.1" fill="none" xmlns="http://www.w3.org/2000/svg" xmlns:xlink="http://www.w3.org/1999/xlink">
	<desc>
			Created with Pixso.
	</desc>
	<defs>
		<radialGradient gradientTransform="translate(180.628 366.902) rotate(-170.209) scale(195.849 285.71)" cx="0.000000" cy="0.000000" r="1.000000" id="paint_radial_2_17_0" gradientUnits="userSpaceOnUse">
			<stop stop-color="#FFFFFF"/>
			<stop offset="1.000000" stop-color="#FFFFFF" stop-opacity="0.000000"/>
		</radialGradient>
		<radialGradient gradientTransform="translate(347.629 36.0517) rotate(-170.209) scale(195.851 285.713)" cx="0.000000" cy="0.000000" r="1.000000" id="paint_radial_2_18_0" gradientUnits="userSpaceOnUse">
			<stop stop-color="#FFFFFF"/>
			<stop offset="1.000000" stop-color="#FFFFFF" stop-opacity="0.000000"/>
		</radialGradient>
	</defs>
	<path id="path" d="M434.2 232.6L433.2 232L299.79 308.1C298.29 308.9 296.5 309.5 294.6 309.6C292.7 309.7 291 309.4 289.79 308.79L273.4 299.6C270.4 297.9 264.9 298.29 261.1 300.4L238.5 313.29C234.7 315.4 234.1 318.6 237.2 320.29L249.1 327C251.6 328.4 251.1 330.9 248 332.7L224.5 346.1C223 346.9 221.2 347.5 219.3 347.6C217.4 347.7 215.7 347.4 214.5 346.8L141.8 305.9C140.3 305.1 138.3 304.7 135.89 304.9C133.6 305.1 131.3 305.7 129.5 306.7L0 380.5L1 381.1L130.39 307.29C131.89 306.5 133.7 305.9 135.6 305.79C137.5 305.7 139.2 306 140.39 306.6L213.1 347.5C216.1 349.2 221.6 348.8 225.4 346.7L248.9 333.3C252.7 331.2 253.3 328 250.2 326.29L238.3 319.6C235.8 318.2 236.3 315.7 239.4 313.9L262 301C265.1 299.2 269.6 299 272 300.29L288.4 309.5C291.4 311.2 296.9 310.79 300.7 308.7L434.2 232.6Z" fill="url(#paint_radial_2_17_0)" fill-opacity="0.300000" fill-rule="nonzero"/>
	<path id="path" d="M515 134.85L443.6 94.65C442.4 93.95 441.9 93.05 442.1 91.95C442.3 90.85 443.2 89.85 444.7 88.95L451.3 85.15C453.1 84.15 454.2 82.85 454.5 81.55C454.8 80.25 454.1 79.05 452.6 78.25L409.5 53.95C406.5 52.25 401 52.65 397.2 54.75L386 61.15C382.9 62.95 378.4 63.15 376 61.85L361 53.45C359.8 52.75 359.3 51.85 359.5 50.75C359.7 49.65 360.6 48.65 362.1 47.75L377.3 39.05C379.1 38.05 380.2 36.75 380.5 35.45C380.8 34.15 380.1 32.95 378.6 32.15L323.29 1.05C321.79 0.25 319.79 -0.15 317.4 0.05C315.1 0.25 312.79 0.85 311 1.85L158 89.15L159 89.75L312 2.45C313.5 1.65 315.29 1.05 317.2 0.95C319.1 0.85 320.79 1.15 322 1.75L377.3 32.85C378.5 33.55 379 34.45 378.8 35.55C378.6 36.65 377.7 37.65 376.2 38.55L361 47.25C359.2 48.25 358.1 49.55 357.8 50.85C357.5 52.15 358.2 53.35 359.7 54.15L374.7 62.55C376.2 63.35 378.2 63.75 380.6 63.55C382.9 63.35 385.2 62.75 387 61.75L398.2 55.35C401.3 53.55 405.8 53.35 408.2 54.65L451.3 78.95C452.5 79.65 453 80.55 452.8 81.65C452.6 82.75 451.7 83.75 450.2 84.65L443.6 88.45C441.8 89.45 440.7 90.75 440.4 92.05C440.1 93.35 440.8 94.55 442.3 95.35L513.7 135.55L515 134.85Z" fill="url(#paint_radial_2_18_0)" fill-opacity="0.300000" fill-rule="nonzero"/>
</svg>
