<svg width="504.004028" height="139.146133" viewBox="0 0 504.004 139.146" fill="none" xmlns="http://www.w3.org/2000/svg" xmlns:xlink="http://www.w3.org/1999/xlink">
	<desc>
			Created with Pixso.
	</desc>
	<defs>
		<radialGradient gradientTransform="translate(268.781 75.9939) rotate(-170.21) scale(188.377 274.83)" cx="0.000000" cy="0.000000" r="1.000000" id="paint_radial_2_1262_0" gradientUnits="userSpaceOnUse">
			<stop stop-color="#FFFFFF"/>
			<stop offset="1.000000" stop-color="#FFFFFF" stop-opacity="0.000000"/>
		</radialGradient>
	</defs>
	<path id="path" d="M1.58 0L0 0.9L43.89 25.62C47.74 27.78 54.66 27.33 59.42 24.6L78.59 13.6C80.52 12.58 82.79 11.9 85.17 11.68C87.55 11.56 89.7 11.9 91.18 12.7L148.34 44.9C149.81 45.7 150.49 46.94 150.27 48.31C150.04 49.67 148.79 51.03 146.98 52.05L119.08 68.15C116.81 69.51 115.34 71.1 115 72.8C114.66 74.5 115.56 75.98 117.38 77L166.94 104.89C170.79 107.05 177.71 106.6 182.48 103.87L259.71 59.76C261.64 58.74 263.91 58.06 266.29 57.83C268.67 57.72 270.82 58.06 272.3 58.85L308.59 79.26C310.06 80.06 310.74 81.31 310.52 82.67C310.29 84.03 309.04 85.39 307.23 86.41L281.94 100.81C277.18 103.53 276.38 107.5 280.24 109.66L330.25 137.78C334.11 139.94 341.03 139.48 345.79 136.76L419.17 94.91C423.02 92.65 428.69 92.31 431.87 94.12L502.41 133.81L504 132.91L433.46 93.21C429.6 91.06 422.68 91.51 417.92 94.23L344.66 136.19C340.8 138.46 335.13 138.8 331.95 136.99L281.94 108.86C278.88 107.16 279.44 103.87 283.3 101.72L308.59 87.32C310.86 85.96 312.33 84.37 312.67 82.67C313.01 80.97 312.1 79.49 310.29 78.47L274 58.06C272.18 57.04 269.58 56.58 266.63 56.7C263.68 56.92 260.84 57.72 258.57 58.97L181.34 103.08C177.49 105.35 171.82 105.69 168.64 103.87L118.96 76.09C115.9 74.39 116.47 71.1 120.33 68.94L148.34 52.95C150.61 51.59 152.08 50.01 152.42 48.31C152.76 46.6 151.85 45.13 150.04 44.11L92.88 11.9C91.07 10.88 88.46 10.43 85.51 10.54C82.56 10.77 79.72 11.56 77.46 12.81L58.18 23.92C54.32 26.19 48.65 26.53 45.47 24.72L1.58 0Z" fill="url(#paint_radial_2_1262_0)" fill-opacity="0.300000" fill-rule="nonzero"/>
</svg>
