<svg width="504.004028" height="368.146240" viewBox="0 0 504.004 368.146" fill="none" xmlns="http://www.w3.org/2000/svg" xmlns:xlink="http://www.w3.org/1999/xlink">
	<desc>
			Created with Pixso.
	</desc>
	<defs>
		<clipPath id="clip2_1576">
			<rect id="507 [преобразованный]" width="381.000000" height="317.000000" transform="translate(43.000000 0.000000)" fill="white" fill-opacity="0"/>
		</clipPath>
		<radialGradient gradientTransform="translate(268.781 304.994) rotate(-170.21) scale(188.377 274.83)" cx="0.000000" cy="0.000000" r="1.000000" id="paint_radial_2_11_0" gradientUnits="userSpaceOnUse">
			<stop stop-color="#FFFFFF"/>
			<stop offset="1.000000" stop-color="#FFFFFF" stop-opacity="0.000000"/>
		</radialGradient>
		<linearGradient x1="150.550034" y1="135.951874" x2="318.846802" y2="135.951874" id="paint_linear_2_1584_0" gradientUnits="userSpaceOnUse">
			<stop stop-color="#C0D6FF"/>
			<stop offset="0.297800" stop-color="#C5DBFF"/>
			<stop offset="0.648800" stop-color="#D3E9FF"/>
			<stop offset="1.000000" stop-color="#E9FFFF"/>
		</linearGradient>
		<linearGradient x1="150.551102" y1="179.150940" x2="179.449341" y2="179.150940" id="paint_linear_2_1586_0" gradientUnits="userSpaceOnUse">
			<stop stop-color="#5778FF"/>
			<stop offset="0.177900" stop-color="#5C7DFF"/>
			<stop offset="0.387600" stop-color="#6A8AFF"/>
			<stop offset="0.613400" stop-color="#82A0FF"/>
			<stop offset="0.849000" stop-color="#A3BEFF"/>
			<stop offset="1.000000" stop-color="#BCD5FF"/>
		</linearGradient>
		<linearGradient x1="315.893158" y1="29.921944" x2="164.339325" y2="199.320541" id="paint_linear_2_1589_0" gradientUnits="userSpaceOnUse">
			<stop stop-color="#2C83DD"/>
			<stop offset="1.000000" stop-color="#450085"/>
		</linearGradient>
		<linearGradient x1="410.868652" y1="160.784592" x2="182.446426" y2="287.445923" id="paint_linear_2_1591_0" gradientUnits="userSpaceOnUse">
			<stop stop-color="#2C83DD"/>
			<stop offset="1.000000" stop-color="#450085"/>
		</linearGradient>
		<linearGradient x1="173.097900" y1="227.711914" x2="410.787842" y2="227.711914" id="paint_linear_2_1594_0" gradientUnits="userSpaceOnUse">
			<stop stop-color="#5778FF"/>
			<stop offset="0.177900" stop-color="#5C7DFF"/>
			<stop offset="0.387600" stop-color="#6A8AFF"/>
			<stop offset="0.613400" stop-color="#82A0FF"/>
			<stop offset="0.849000" stop-color="#A3BEFF"/>
			<stop offset="1.000000" stop-color="#BCD5FF"/>
		</linearGradient>
		<linearGradient x1="252.962585" y1="219.779282" x2="490.779205" y2="219.779282" id="paint_linear_2_1596_0" gradientUnits="userSpaceOnUse">
			<stop stop-color="#C0D6FF"/>
			<stop offset="0.297800" stop-color="#C5DBFF"/>
			<stop offset="0.648800" stop-color="#D3E9FF"/>
			<stop offset="1.000000" stop-color="#E9FFFF"/>
		</linearGradient>
		<linearGradient x1="293.236542" y1="233.291779" x2="354.110901" y2="233.291779" id="paint_linear_2_1610_0" gradientUnits="userSpaceOnUse">
			<stop stop-color="#C0D6FF"/>
			<stop offset="0.297800" stop-color="#C5DBFF"/>
			<stop offset="0.648800" stop-color="#D3E9FF"/>
			<stop offset="1.000000" stop-color="#E9FFFF"/>
		</linearGradient>
		<linearGradient x1="146.450699" y1="149.547791" x2="207.325058" y2="149.547791" id="paint_linear_2_1617_0" gradientUnits="userSpaceOnUse">
			<stop stop-color="#C0D6FF"/>
			<stop offset="0.297800" stop-color="#C5DBFF"/>
			<stop offset="0.648800" stop-color="#D3E9FF"/>
			<stop offset="1.000000" stop-color="#E9FFFF"/>
		</linearGradient>
		<radialGradient gradientTransform="translate(242.37 197.66) rotate(0) scale(68.177 68.116)" cx="0.000000" cy="0.000000" r="1.000000" id="paint_radial_2_1631_0" gradientUnits="userSpaceOnUse">
			<stop stop-color="#2B3AA5"/>
			<stop offset="1.000000" stop-color="#182484"/>
		</radialGradient>
		<radialGradient gradientTransform="translate(227.459 166.963) rotate(0) scale(52.1854 52.1387)" cx="0.000000" cy="0.000000" r="1.000000" id="paint_radial_2_1633_0" gradientUnits="userSpaceOnUse">
			<stop stop-color="#2B3AA5"/>
			<stop offset="1.000000" stop-color="#182484"/>
		</radialGradient>
		<linearGradient x1="208.670334" y1="182.041351" x2="254.639877" y2="99.192368" id="paint_linear_2_1637_0" gradientUnits="userSpaceOnUse">
			<stop stop-color="#5778FF"/>
			<stop offset="0.039792" stop-color="#5C7DFF"/>
			<stop offset="0.086699" stop-color="#6A8AFF"/>
			<stop offset="0.137200" stop-color="#82A0FF"/>
			<stop offset="0.189900" stop-color="#A3BEFF"/>
			<stop offset="0.223700" stop-color="#BCD5FF"/>
		</linearGradient>
		<linearGradient x1="265.143585" y1="182.335419" x2="234.546173" y2="122.467293" id="paint_linear_2_1639_0" gradientUnits="userSpaceOnUse">
			<stop stop-color="#C0D6FF"/>
			<stop offset="0.297800" stop-color="#C5DBFF"/>
			<stop offset="0.648800" stop-color="#D3E9FF"/>
			<stop offset="1.000000" stop-color="#E9FFFF"/>
		</linearGradient>
		<linearGradient x1="347.843781" y1="289.951019" x2="250.598663" y2="117.487228" id="paint_linear_2_1644_0" gradientUnits="userSpaceOnUse">
			<stop stop-color="#C0D6FF"/>
			<stop offset="0.078169" stop-color="#C3D9FF"/>
			<stop offset="0.134100" stop-color="#CCE2FF"/>
			<stop offset="0.182900" stop-color="#DCF2FF"/>
			<stop offset="0.211700" stop-color="#E9FFFF"/>
			<stop offset="0.256000" stop-color="#D8EEFF"/>
			<stop offset="0.314500" stop-color="#CBE1FF"/>
			<stop offset="0.386900" stop-color="#C2D8FF"/>
			<stop offset="0.514300" stop-color="#C0D6FF"/>
			<stop offset="0.623900" stop-color="#D0E6FF"/>
			<stop offset="0.755000" stop-color="#E9FFFF"/>
			<stop offset="1.000000" stop-color="#C0D6FF"/>
		</linearGradient>
		<linearGradient x1="319.563293" y1="176.267700" x2="341.182800" y2="176.267700" id="paint_linear_2_1650_0" gradientUnits="userSpaceOnUse">
			<stop stop-color="#C0D6FF"/>
			<stop offset="0.498300" stop-color="#D2E8FF"/>
			<stop offset="1.000000" stop-color="#E9FFFF"/>
		</linearGradient>
		<linearGradient x1="295.334686" y1="176.267700" x2="337.113556" y2="176.267700" id="paint_linear_2_1652_0" gradientUnits="userSpaceOnUse">
			<stop stop-color="#5778FF"/>
			<stop offset="0.177900" stop-color="#5C7DFF"/>
			<stop offset="0.387600" stop-color="#6A8AFF"/>
			<stop offset="0.613400" stop-color="#82A0FF"/>
			<stop offset="0.849000" stop-color="#A3BEFF"/>
			<stop offset="1.000000" stop-color="#BCD5FF"/>
		</linearGradient>
		<linearGradient x1="322.747406" y1="145.443329" x2="338.122467" y2="154.328354" id="paint_linear_2_1654_0" gradientUnits="userSpaceOnUse">
			<stop stop-color="#C0D6FF"/>
			<stop offset="0.297800" stop-color="#C5DBFF"/>
			<stop offset="0.648800" stop-color="#D3E9FF"/>
			<stop offset="1.000000" stop-color="#E9FFFF"/>
		</linearGradient>
		<linearGradient x1="325.472076" y1="147.018036" x2="335.397583" y2="152.753845" id="paint_linear_2_1656_0" gradientUnits="userSpaceOnUse">
			<stop stop-color="#5778FF"/>
			<stop offset="0.177900" stop-color="#5C7DFF"/>
			<stop offset="0.387600" stop-color="#6A8AFF"/>
			<stop offset="0.613400" stop-color="#82A0FF"/>
			<stop offset="0.849000" stop-color="#A3BEFF"/>
			<stop offset="1.000000" stop-color="#BCD5FF"/>
		</linearGradient>
		<linearGradient x1="319.563293" y1="145.050430" x2="341.182800" y2="145.050430" id="paint_linear_2_1660_0" gradientUnits="userSpaceOnUse">
			<stop stop-color="#C0D6FF"/>
			<stop offset="0.498300" stop-color="#D2E8FF"/>
			<stop offset="1.000000" stop-color="#E9FFFF"/>
		</linearGradient>
		<linearGradient x1="295.334686" y1="145.050430" x2="337.113556" y2="145.050430" id="paint_linear_2_1662_0" gradientUnits="userSpaceOnUse">
			<stop stop-color="#5778FF"/>
			<stop offset="0.177900" stop-color="#5C7DFF"/>
			<stop offset="0.387600" stop-color="#6A8AFF"/>
			<stop offset="0.613400" stop-color="#82A0FF"/>
			<stop offset="0.849000" stop-color="#A3BEFF"/>
			<stop offset="1.000000" stop-color="#BCD5FF"/>
		</linearGradient>
		<linearGradient x1="322.747345" y1="135.344070" x2="338.122437" y2="144.229141" id="paint_linear_2_1664_0" gradientUnits="userSpaceOnUse">
			<stop stop-color="#C0D6FF"/>
			<stop offset="0.297800" stop-color="#C5DBFF"/>
			<stop offset="0.648800" stop-color="#D3E9FF"/>
			<stop offset="1.000000" stop-color="#E9FFFF"/>
		</linearGradient>
		<linearGradient x1="301.586029" y1="194.390289" x2="323.205353" y2="194.390289" id="paint_linear_2_1668_0" gradientUnits="userSpaceOnUse">
			<stop stop-color="#C0D6FF"/>
			<stop offset="0.498300" stop-color="#D2E8FF"/>
			<stop offset="1.000000" stop-color="#E9FFFF"/>
		</linearGradient>
		<linearGradient x1="277.357239" y1="194.390274" x2="319.136292" y2="194.390274" id="paint_linear_2_1670_0" gradientUnits="userSpaceOnUse">
			<stop stop-color="#5778FF"/>
			<stop offset="0.177900" stop-color="#5C7DFF"/>
			<stop offset="0.387600" stop-color="#6A8AFF"/>
			<stop offset="0.613400" stop-color="#82A0FF"/>
			<stop offset="0.849000" stop-color="#A3BEFF"/>
			<stop offset="1.000000" stop-color="#BCD5FF"/>
		</linearGradient>
		<linearGradient x1="304.769989" y1="171.312134" x2="320.145081" y2="180.197144" id="paint_linear_2_1672_0" gradientUnits="userSpaceOnUse">
			<stop stop-color="#C0D6FF"/>
			<stop offset="0.297800" stop-color="#C5DBFF"/>
			<stop offset="0.648800" stop-color="#D3E9FF"/>
			<stop offset="1.000000" stop-color="#E9FFFF"/>
		</linearGradient>
		<linearGradient x1="283.608551" y1="196.832016" x2="305.228058" y2="196.832016" id="paint_linear_2_1676_0" gradientUnits="userSpaceOnUse">
			<stop stop-color="#C0D6FF"/>
			<stop offset="0.498300" stop-color="#D2E8FF"/>
			<stop offset="1.000000" stop-color="#E9FFFF"/>
		</linearGradient>
		<linearGradient x1="259.379944" y1="196.832016" x2="301.158997" y2="196.832016" id="paint_linear_2_1678_0" gradientUnits="userSpaceOnUse">
			<stop stop-color="#5778FF"/>
			<stop offset="0.177900" stop-color="#5C7DFF"/>
			<stop offset="0.387600" stop-color="#6A8AFF"/>
			<stop offset="0.613400" stop-color="#82A0FF"/>
			<stop offset="0.849000" stop-color="#A3BEFF"/>
			<stop offset="1.000000" stop-color="#BCD5FF"/>
		</linearGradient>
		<linearGradient x1="286.792755" y1="165.819656" x2="302.167847" y2="174.704666" id="paint_linear_2_1680_0" gradientUnits="userSpaceOnUse">
			<stop stop-color="#C0D6FF"/>
			<stop offset="0.297800" stop-color="#C5DBFF"/>
			<stop offset="0.648800" stop-color="#D3E9FF"/>
			<stop offset="1.000000" stop-color="#E9FFFF"/>
		</linearGradient>
		<linearGradient x1="265.631256" y1="211.432251" x2="287.250763" y2="211.432251" id="paint_linear_2_1684_0" gradientUnits="userSpaceOnUse">
			<stop stop-color="#C0D6FF"/>
			<stop offset="0.498300" stop-color="#D2E8FF"/>
			<stop offset="1.000000" stop-color="#E9FFFF"/>
		</linearGradient>
		<linearGradient x1="241.402466" y1="211.432251" x2="283.181702" y2="211.432251" id="paint_linear_2_1686_0" gradientUnits="userSpaceOnUse">
			<stop stop-color="#5778FF"/>
			<stop offset="0.177900" stop-color="#5C7DFF"/>
			<stop offset="0.387600" stop-color="#6A8AFF"/>
			<stop offset="0.613400" stop-color="#82A0FF"/>
			<stop offset="0.849000" stop-color="#A3BEFF"/>
			<stop offset="1.000000" stop-color="#BCD5FF"/>
		</linearGradient>
		<linearGradient x1="268.815521" y1="184.643494" x2="284.190491" y2="193.528503" id="paint_linear_2_1688_0" gradientUnits="userSpaceOnUse">
			<stop stop-color="#C0D6FF"/>
			<stop offset="0.297800" stop-color="#C5DBFF"/>
			<stop offset="0.648800" stop-color="#D3E9FF"/>
			<stop offset="1.000000" stop-color="#E9FFFF"/>
		</linearGradient>
		<linearGradient x1="247.654007" y1="226.543182" x2="269.273499" y2="226.543182" id="paint_linear_2_1692_0" gradientUnits="userSpaceOnUse">
			<stop stop-color="#C0D6FF"/>
			<stop offset="0.498300" stop-color="#D2E8FF"/>
			<stop offset="1.000000" stop-color="#E9FFFF"/>
		</linearGradient>
		<linearGradient x1="223.425415" y1="226.543182" x2="265.204468" y2="226.543182" id="paint_linear_2_1694_0" gradientUnits="userSpaceOnUse">
			<stop stop-color="#5778FF"/>
			<stop offset="0.177900" stop-color="#5C7DFF"/>
			<stop offset="0.387600" stop-color="#6A8AFF"/>
			<stop offset="0.613400" stop-color="#82A0FF"/>
			<stop offset="0.849000" stop-color="#A3BEFF"/>
			<stop offset="1.000000" stop-color="#BCD5FF"/>
		</linearGradient>
		<linearGradient x1="250.838196" y1="204.489273" x2="266.213165" y2="213.374237" id="paint_linear_2_1696_0" gradientUnits="userSpaceOnUse">
			<stop stop-color="#C0D6FF"/>
			<stop offset="0.297800" stop-color="#C5DBFF"/>
			<stop offset="0.648800" stop-color="#D3E9FF"/>
			<stop offset="1.000000" stop-color="#E9FFFF"/>
		</linearGradient>
	</defs>
	<path id="path" d="M1.58 229L0 229.9L43.89 254.62C47.74 256.78 54.66 256.32 59.42 253.6L78.59 242.6C80.52 241.58 82.79 240.9 85.17 240.68C87.55 240.56 89.7 240.9 91.18 241.7L148.34 273.9C149.81 274.7 150.49 275.94 150.27 277.31C150.04 278.67 148.79 280.03 146.98 281.05L119.08 297.15C116.81 298.51 115.34 300.1 115 301.8C114.66 303.5 115.56 304.98 117.38 306L166.94 333.89C170.79 336.05 177.71 335.6 182.48 332.87L259.71 288.76C261.64 287.74 263.91 287.06 266.29 286.83C268.67 286.72 270.82 287.06 272.3 287.85L308.59 308.26C310.06 309.06 310.74 310.31 310.52 311.67C310.29 313.03 309.04 314.39 307.23 315.41L281.94 329.81C277.18 332.53 276.38 336.5 280.24 338.66L330.25 366.78C334.11 368.94 341.03 368.48 345.79 365.76L419.17 323.91C423.02 321.65 428.69 321.31 431.87 323.12L502.41 362.81L504 361.91L433.46 322.21C429.6 320.06 422.68 320.51 417.92 323.23L344.66 365.19C340.8 367.46 335.13 367.8 331.95 365.99L281.94 337.86C278.88 336.16 279.44 332.87 283.3 330.72L308.59 316.32C310.86 314.96 312.33 313.37 312.67 311.67C313.01 309.97 312.1 308.49 310.29 307.47L274 287.06C272.18 286.04 269.58 285.58 266.63 285.7C263.68 285.92 260.84 286.72 258.57 287.97L181.34 332.08C177.49 334.35 171.82 334.69 168.64 332.87L118.96 305.09C115.9 303.39 116.47 300.1 120.33 297.95L148.34 281.96C150.61 280.59 152.08 279.01 152.42 277.31C152.76 275.6 151.85 274.13 150.04 273.11L92.88 240.9C91.07 239.88 88.46 239.43 85.51 239.54C82.56 239.77 79.72 240.56 77.46 241.81L58.18 252.92C54.32 255.19 48.65 255.53 45.47 253.72L1.58 229Z" fill="url(#paint_radial_2_11_0)" fill-opacity="0.300000" fill-rule="nonzero"/>
	<g clip-path="url(#clip2_1576)">
		<path id="path" d="M318.79 146.41L300.52 38.13L302.01 37.5L299.82 36.25C299.43 35.93 298.8 36.01 298.09 36.32L152.43 120.6C151.26 121.3 150.32 123.03 150.55 124.28L168.9 233.43C168.98 233.98 169.29 234.37 169.68 234.53L171.8 235.78L172.19 233.74L172.03 233.74L316.83 150.1C318.08 149.47 319.02 147.67 318.79 146.41Z" fill="url(#paint_linear_2_1584_0)" fill-opacity="1.000000" fill-rule="nonzero"/>
		<path id="path" d="M153.3 123.58L150.87 122.48C150.63 123.11 150.48 123.74 150.55 124.28L168.9 233.43C168.98 233.98 169.29 234.37 169.68 234.53L171.8 235.78L172.19 233.74L172.03 233.74L179.32 229.51L153.3 123.58Z" fill="url(#paint_linear_2_1586_0)" fill-opacity="1.000000" fill-rule="nonzero"/>
		<path id="path" d="M319.18 151.43L173.52 235.63C172.43 236.25 171.41 235.86 171.25 234.76L152.91 125.62C152.67 124.36 153.61 122.64 154.79 121.93L300.44 37.74C301.54 37.11 302.56 37.5 302.72 38.6L321.06 147.75C321.3 149 320.44 150.73 319.18 151.43Z" fill="#242993" fill-opacity="1.000000" fill-rule="nonzero"/>
		<g opacity="0.510000">
			<path id="polygon" d="M298.56 44.72L158.08 125.85L175.48 228.64L315.89 147.51L298.56 44.72Z" fill="url(#paint_linear_2_1589_0)" fill-opacity="1.000000" fill-rule="nonzero"/>
		</g>
		<g opacity="0.500000">
			<path id="path" d="M409.57 225.27L265.32 308.6C263.76 309.54 261.32 309.62 259.99 308.83L173.92 259.09C172.58 258.3 172.74 256.89 174.31 256.03L318.55 172.62C320.12 171.68 322.55 171.6 323.89 172.38L409.96 222.13C411.3 222.92 411.14 224.33 409.57 225.27Z" fill="url(#paint_linear_2_1591_0)" fill-opacity="1.000000" fill-rule="nonzero"/>
		</g>
		<path id="path" d="M259.84 316.29L161.29 259.32C160.51 258.85 160.04 258.23 160.04 257.44C160.04 256.58 160.67 255.71 161.69 255.09L317.85 164.77C319.81 163.67 322.63 163.52 324.35 164.54L422.9 221.5C423.68 221.97 424.15 222.6 424.15 223.39C424.15 224.25 423.53 225.11 422.51 225.74L266.34 316.05C265.32 316.68 263.99 317 262.74 317C261.64 317 260.62 316.76 259.84 316.29ZM318.24 165.56L162.08 255.79C161.22 256.26 160.74 256.89 160.74 257.44C160.74 257.91 161.06 258.3 161.61 258.62L260.15 315.58C261.64 316.45 264.15 316.29 265.87 315.35L422.04 225.03C422.9 224.56 423.37 223.94 423.37 223.39C423.37 222.92 423.05 222.52 422.51 222.21L323.96 165.24C323.34 164.85 322.4 164.69 321.53 164.69C320.36 164.69 319.18 165.01 318.24 165.56Z" fill="#34C6FF" fill-opacity="1.000000" fill-rule="nonzero"/>
		<path id="path" d="M410.75 203.06L402.83 207.22L323.1 161.16C321.77 160.38 319.42 160.46 317.93 161.4L180.42 240.88C179.09 240.18 173.13 237.27 173.13 237.27L176.03 244.89C176.19 245.2 176.42 245.51 176.82 245.83L260.78 294.24C262.11 295.03 264.46 294.95 265.95 294.01L406.67 212.72C407.3 212.32 407.69 211.93 407.85 211.46L410.75 203.06Z" fill="url(#paint_linear_2_1594_0)" fill-opacity="1.000000" fill-rule="nonzero"/>
		<path id="path" d="M409.57 204.4L265.32 287.73C263.76 288.67 261.32 288.75 259.99 287.96L173.92 238.22C172.58 237.43 172.74 236.02 174.31 235.16L318.48 151.83C320.04 150.88 322.47 150.81 323.81 151.59L409.88 201.34C411.3 202.12 411.14 203.46 409.57 204.4Z" fill="url(#paint_linear_2_1596_0)" fill-opacity="1.000000" fill-rule="nonzero"/>
		<path id="path" d="M221.89 269.68L221.89 268.11C221.89 267.95 221.97 267.88 222.13 267.95L227.69 271.17C227.77 271.25 227.93 271.41 227.93 271.56L227.93 273.13C227.93 273.29 227.85 273.37 227.69 273.29L222.13 270.07C221.97 269.99 221.89 269.84 221.89 269.68Z" fill="#2859CB" fill-opacity="1.000000" fill-rule="nonzero"/>
		<path id="path" d="M230.2 274.54L230.2 272.98C230.2 272.82 230.28 272.74 230.44 272.82L236 276.04C236.08 276.12 236.24 276.27 236.24 276.43L236.24 278C236.24 278.16 236.16 278.23 236 278.16L230.44 274.94C230.28 274.86 230.2 274.7 230.2 274.54Z" fill="#2859CB" fill-opacity="1.000000" fill-rule="nonzero"/>
		<path id="path" d="M196.41 233.59L316.28 164.3C317.06 163.83 318.08 163.83 318.87 164.3L361.51 189.02C362.14 189.41 362.14 190.27 361.51 190.59L241.73 259.79C240.94 260.26 239.92 260.26 239.14 259.79L196.41 235.08C195.79 234.84 195.79 233.9 196.41 233.59Z" fill="#ADC8FF" fill-opacity="1.000000" fill-rule="nonzero"/>
		<path id="path" d="M196.41 235.16L196.81 235.39L316.2 166.42C316.99 165.95 318.01 165.95 318.79 166.42L361.04 190.9L361.44 190.67C362.06 190.27 362.06 189.41 361.44 189.1L318.79 164.38C318.01 163.91 316.99 163.91 316.2 164.38L196.34 233.67C195.79 233.9 195.79 234.84 196.41 235.16Z" fill="#91AFFF" fill-opacity="1.000000" fill-rule="nonzero"/>
		<path id="polygon" d="M322 170.58L217.97 230.76L213.35 228.09L317.38 167.91L322 170.58Z" fill="#242993" fill-opacity="1.000000" fill-rule="nonzero"/>
		<path id="polygon" d="M333.37 177.17L235.77 233.59L231.14 230.92L328.75 174.5L333.37 177.17Z" fill="#242993" fill-opacity="1.000000" fill-rule="nonzero"/>
		<path id="polygon" d="M340.74 181.41L225.81 247.87L221.19 245.2L336.11 178.74L340.74 181.41Z" fill="#242993" fill-opacity="1.000000" fill-rule="nonzero"/>
		<path id="polygon" d="M348.19 185.64L233.18 252.1L228.56 249.44L343.56 182.98L348.19 185.64Z" fill="#242993" fill-opacity="1.000000" fill-rule="nonzero"/>
		<path id="polygon" d="M355.56 189.96L240.63 256.34L236 253.67L350.93 187.29L355.56 189.96Z" fill="#242993" fill-opacity="1.000000" fill-rule="nonzero"/>
		<path id="polygon" d="M211.62 234.37L207 237.04L202.37 234.37L207 231.7L211.62 234.37Z" fill="#242993" fill-opacity="1.000000" fill-rule="nonzero"/>
		<path id="polygon" d="M228.01 238.06L218.37 243.63L213.74 240.96L223.38 235.39L228.01 238.06Z" fill="#242993" fill-opacity="1.000000" fill-rule="nonzero"/>
		<path id="path" d="M320.83 250.3L353.13 231.63C354.38 230.92 354.38 229.74 353.13 228.96L331.02 216.17C329.76 215.46 327.73 215.46 326.47 216.17L294.17 234.84C292.92 235.55 292.92 236.73 294.17 237.51L316.28 250.3C317.54 251.08 319.57 251.08 320.83 250.3Z" fill="url(#paint_linear_2_1610_0)" fill-opacity="1.000000" fill-rule="nonzero"/>
		<path id="path" d="M294.17 236.02L326.47 217.34C327.73 216.64 329.76 216.64 331.02 217.34L353.13 230.13C353.52 230.37 353.75 230.61 353.91 230.92C354.22 230.29 353.99 229.59 353.13 229.04L331.02 216.25C329.76 215.54 327.73 215.54 326.47 216.25L294.17 234.92C293.31 235.39 293.07 236.18 293.39 236.8C293.55 236.49 293.78 236.25 294.17 236.02Z" fill="#91AFFF" fill-opacity="1.000000" fill-rule="nonzero"/>
		<g opacity="0.110000">
			<path id="path" d="M174.07 166.58L206.37 147.9C207.63 147.2 207.63 146.02 206.37 145.23L184.26 132.45C183.01 131.74 180.97 131.74 179.72 132.45L147.42 151.12C146.16 151.83 146.16 153 147.42 153.79L169.53 166.58C170.78 167.28 172.82 167.28 174.07 166.58Z" fill="url(#paint_linear_2_1617_0)" fill-opacity="1.000000" fill-rule="nonzero"/>
			<path id="path" d="M147.42 152.22L179.72 133.54C180.97 132.84 183.01 132.84 184.26 133.54L206.37 146.33C206.76 146.57 207 146.8 207.15 147.12C207.47 146.49 207.23 145.78 206.37 145.23L184.26 132.45C183.01 131.74 180.97 131.74 179.72 132.45L147.42 151.12C146.56 151.59 146.32 152.38 146.63 153C146.71 152.77 147.03 152.45 147.42 152.22Z" fill="#91AFFF" fill-opacity="1.000000" fill-rule="nonzero"/>
			<path id="path" d="M133.23 195.77L253.09 126.48C253.88 126.01 254.9 126.01 255.68 126.48L298.33 151.2C298.96 151.59 298.96 152.45 298.33 152.77L178.46 222.05C177.68 222.52 176.66 222.52 175.88 222.05L133.15 197.34C132.6 197.02 132.6 196.08 133.23 195.77Z" fill="#ADC8FF" fill-opacity="1.000000" fill-rule="nonzero"/>
			<path id="path" d="M133.23 197.34L133.62 197.57L253.02 128.6C253.8 128.13 254.82 128.13 255.6 128.6L297.86 153.08L298.25 152.85C298.88 152.45 298.88 151.59 298.25 151.28L255.6 126.56C254.82 126.09 253.8 126.09 253.02 126.56L133.15 195.84C132.6 196.08 132.6 197.02 133.23 197.34Z" fill="#91AFFF" fill-opacity="1.000000" fill-rule="nonzero"/>
			<path id="polygon" d="M287.12 149.55L182.7 209.89L186.85 212.24L291.27 151.9L287.12 149.55Z" fill="#242993" fill-opacity="1.000000" fill-rule="nonzero"/>
			<path id="polygon" d="M276.14 143.19L176.89 200.55L181.05 202.91L280.22 145.55L276.14 143.19Z" fill="#242993" fill-opacity="1.000000" fill-rule="nonzero"/>
			<path id="polygon" d="M169.45 204.79L160.2 210.13L164.35 212.56L173.6 207.22L169.45 204.79Z" fill="#242993" fill-opacity="1.000000" fill-rule="nonzero"/>
			<path id="polygon" d="M177.68 212.79L171.17 216.48L175.33 218.91L181.83 215.15L177.68 212.79Z" fill="#242993" fill-opacity="1.000000" fill-rule="nonzero"/>
			<path id="polygon" d="M269.24 139.19L153.3 206.2L157.45 208.56L273.32 141.63L269.24 139.19Z" fill="#242993" fill-opacity="1.000000" fill-rule="nonzero"/>
			<path id="polygon" d="M262.34 135.19L146.4 202.2L150.55 204.55L266.42 137.62L262.34 135.19Z" fill="#242993" fill-opacity="1.000000" fill-rule="nonzero"/>
			<path id="polygon" d="M255.45 131.27L139.5 198.2L143.65 200.63L259.6 133.62L255.45 131.27Z" fill="#242993" fill-opacity="1.000000" fill-rule="nonzero"/>
		</g>
		<g opacity="0.420000">
			<path id="polygon" d="M251.92 227.39L220.87 208.24L290.72 167.91L323.65 190.12L251.92 227.39Z" fill="url(#paint_radial_2_1631_0)" fill-opacity="1.000000" fill-rule="nonzero"/>
		</g>
		<g opacity="0.420000">
			<path id="polygon" d="M220.87 208.24L213.74 163.28L279.28 125.62L279.28 174.42L220.87 208.24Z" fill="url(#paint_radial_2_1633_0)" fill-opacity="1.000000" fill-rule="nonzero"/>
		</g>
		<path id="path" d="M286.18 103.81L279.28 99.8C279.2 99.72 279.04 99.72 278.96 99.8L192.1 150.02C191.79 150.18 191.55 150.65 191.55 151.04L191.55 167.44C191.55 167.6 191.63 167.75 191.71 167.83L198.69 171.83L198.77 163.91L278.96 117.62C279.28 117.46 279.51 116.99 279.51 116.59L279.51 110.95L286.18 103.81Z" fill="url(#paint_linear_2_1637_0)" fill-opacity="1.000000" fill-rule="nonzero"/>
		<path id="path" d="M285.86 121.62L199 171.83C198.69 171.99 198.45 171.83 198.45 171.44L198.45 155.04C198.45 154.65 198.69 154.26 199 154.02L285.86 103.81C286.18 103.65 286.41 103.81 286.41 104.2L286.41 120.6C286.33 120.99 286.1 121.46 285.86 121.62Z" fill="url(#paint_linear_2_1639_0)" fill-opacity="1.000000" fill-rule="nonzero"/>
		<g opacity="0.600000">
			<path id="path" d="M273.87 118.32L206.21 158.1C208.33 159.91 210.29 161.95 212.09 164.22L280.22 124.83C278.26 122.4 276.14 120.2 273.87 118.32Z" fill="#242993" fill-opacity="1.000000" fill-rule="nonzero"/>
		</g>
		<path id="path" d="M283.35 116.67L201.43 163.99C201.28 164.07 201.12 163.99 201.12 163.75L201.12 159.59C201.12 159.36 201.28 159.04 201.43 158.89L283.35 111.57C283.51 111.49 283.67 111.57 283.67 111.81L283.67 115.97C283.75 116.28 283.59 116.6 283.35 116.67Z" fill="#242993" fill-opacity="1.000000" fill-rule="nonzero"/>
		<path id="path" d="M283.35 111.65L281.71 112.59L281.71 114.79C281.71 115.03 281.55 115.34 281.39 115.5L201.12 161.87L201.12 163.75C201.12 163.99 201.28 164.15 201.43 163.99L283.35 116.67C283.51 116.6 283.67 116.28 283.67 115.97L283.67 111.81C283.75 111.65 283.59 111.49 283.35 111.65Z" fill="#4553C7" fill-opacity="1.000000" fill-rule="nonzero"/>
		<g opacity="0.960000">
			<path id="path" d="M329.37 294.32L397.5 254.93C388.72 249.83 381.27 238.77 379 228.09C378.06 223.78 375.47 220.01 371.63 217.82L320.12 188.08C305.78 179.76 296.45 164.85 295.51 148.3C294.64 134.33 284.14 120.6 275.91 115.81L207.78 155.2C215.86 159.83 224.72 172.93 225.73 186.66C226.99 203.22 235.93 218.21 250.27 226.53L303.42 257.2C307.26 259.4 309.85 263.17 310.79 267.48C313.14 278.16 320.59 289.22 329.37 294.32Z" fill="url(#paint_linear_2_1644_0)" fill-opacity="1.000000" fill-rule="nonzero"/>
		</g>
		<g opacity="0.800000">
			<path id="path" d="M275.99 115.89L207.86 155.28C208.41 155.59 208.96 155.91 209.51 156.3L277.63 116.91C277.08 116.52 276.53 116.2 275.99 115.89Z" fill="#4553C7" fill-opacity="1.000000" fill-rule="nonzero"/>
		</g>
		<path id="path" d="M341.29 149.86L319.57 149.86L319.57 196.32C319.57 197.89 320.67 199.53 322.79 200.79C327.02 203.22 333.92 203.22 338.15 200.79C340.27 199.53 341.37 197.96 341.37 196.32L341.37 149.86L341.29 149.86Z" fill="url(#paint_linear_2_1650_0)" fill-opacity="1.000000" fill-rule="nonzero"/>
		<path id="path" d="M341.29 149.86L319.57 149.86L319.57 196.32C319.57 197.89 320.67 199.53 322.79 200.79C327.02 203.22 333.92 203.22 338.15 200.79C340.27 199.53 341.37 197.96 341.37 196.32L341.37 149.86L341.29 149.86Z" fill="url(#paint_linear_2_1652_0)" fill-opacity="1.000000" fill-rule="nonzero"/>
		<path id="path" d="M338.15 154.34C333.92 156.77 327.02 156.77 322.79 154.34C318.55 151.9 318.55 147.9 322.79 145.47C327.02 143.04 333.92 143.04 338.15 145.47C342.39 147.9 342.39 151.9 338.15 154.34Z" fill="url(#paint_linear_2_1654_0)" fill-opacity="1.000000" fill-rule="nonzero"/>
		<g opacity="0.300000">
			<path id="path" d="M335.41 152.77C332.67 154.34 328.2 154.34 325.45 152.77C322.71 151.2 322.71 148.61 325.45 147.04C328.2 145.47 332.67 145.47 335.41 147.04C338.15 148.61 338.15 151.2 335.41 152.77Z" fill="url(#paint_linear_2_1656_0)" fill-opacity="1.000000" fill-rule="nonzero"/>
		</g>
		<g opacity="0.500000">
			<path id="path" d="M338.15 153.87C333.92 156.3 327.02 156.3 322.79 153.87C320.75 152.69 319.73 151.2 319.65 149.63C319.57 151.28 320.59 153 322.79 154.34C327.02 156.77 333.92 156.77 338.15 154.34C340.35 153.08 341.45 151.36 341.29 149.63C341.21 151.2 340.11 152.69 338.15 153.87Z" fill="#FFFFFF" fill-opacity="1.000000" fill-rule="nonzero"/>
		</g>
		<path id="path" d="M341.29 139.82L319.57 139.82L319.57 144.06C319.57 145.63 320.67 147.27 322.79 148.53C327.02 150.96 333.92 150.96 338.15 148.53C340.27 147.27 341.37 145.71 341.37 144.06L341.37 139.82L341.29 139.82Z" fill="url(#paint_linear_2_1660_0)" fill-opacity="1.000000" fill-rule="nonzero"/>
		<path id="path" d="M341.29 139.82L319.57 139.82L319.57 144.06C319.57 145.63 320.67 147.27 322.79 148.53C327.02 150.96 333.92 150.96 338.15 148.53C340.27 147.27 341.37 145.71 341.37 144.06L341.37 139.82L341.29 139.82Z" fill="url(#paint_linear_2_1662_0)" fill-opacity="1.000000" fill-rule="nonzero"/>
		<path id="path" d="M338.15 144.21C333.92 146.65 327.02 146.65 322.79 144.21C318.55 141.78 318.55 137.78 322.79 135.35C327.02 132.92 333.92 132.92 338.15 135.35C342.39 137.78 342.39 141.78 338.15 144.21Z" fill="url(#paint_linear_2_1664_0)" fill-opacity="1.000000" fill-rule="nonzero"/>
		<g opacity="0.500000">
			<path id="path" d="M338.15 143.74C333.92 146.18 327.02 146.18 322.79 143.74C320.75 142.57 319.73 141.08 319.65 139.51C319.57 141.15 320.59 142.88 322.79 144.21C327.02 146.65 333.92 146.65 338.15 144.21C340.35 142.96 341.45 141.23 341.29 139.51C341.21 141.08 340.11 142.57 338.15 143.74Z" fill="#FFFFFF" fill-opacity="1.000000" fill-rule="nonzero"/>
		</g>
		<path id="path" d="M323.34 175.76L301.62 175.76L301.62 206.75C301.62 208.32 302.72 209.97 304.84 211.22C309.07 213.66 315.97 213.66 320.2 211.22C322.32 209.97 323.41 208.4 323.41 206.75L323.41 175.76L323.34 175.76Z" fill="url(#paint_linear_2_1668_0)" fill-opacity="1.000000" fill-rule="nonzero"/>
		<path id="path" d="M323.34 175.76L301.62 175.76L301.62 206.75C301.62 208.32 302.72 209.97 304.84 211.22C309.07 213.66 315.97 213.66 320.2 211.22C322.32 209.97 323.41 208.4 323.41 206.75L323.41 175.76L323.34 175.76Z" fill="url(#paint_linear_2_1670_0)" fill-opacity="1.000000" fill-rule="nonzero"/>
		<path id="path" d="M320.12 180.23C315.89 182.66 308.99 182.66 304.76 180.23C300.52 177.8 300.52 173.8 304.76 171.36C308.99 168.93 315.89 168.93 320.12 171.36C324.35 173.8 324.35 177.72 320.12 180.23Z" fill="url(#paint_linear_2_1672_0)" fill-opacity="1.000000" fill-rule="nonzero"/>
		<g opacity="0.500000">
			<path id="path" d="M320.12 179.76C315.89 182.19 308.99 182.19 304.76 179.76C302.72 178.58 301.7 177.09 301.62 175.52C301.54 177.17 302.56 178.9 304.76 180.23C308.99 182.66 315.89 182.66 320.12 180.23C322.32 178.98 323.41 177.25 323.26 175.52C323.18 177.01 322.16 178.58 320.12 179.76Z" fill="#FFFFFF" fill-opacity="1.000000" fill-rule="nonzero"/>
		</g>
		<path id="path" d="M305.38 170.27L283.67 170.27L283.67 217.11C283.67 218.68 284.76 220.33 286.88 221.58C291.12 224.01 298.01 224.01 302.25 221.58C304.36 220.33 305.46 218.76 305.46 217.11L305.46 170.27L305.38 170.27Z" fill="url(#paint_linear_2_1676_0)" fill-opacity="1.000000" fill-rule="nonzero"/>
		<path id="path" d="M305.38 170.27L283.67 170.27L283.67 217.11C283.67 218.68 284.76 220.33 286.88 221.58C291.12 224.01 298.01 224.01 302.25 221.58C304.36 220.33 305.46 218.76 305.46 217.11L305.46 170.27L305.38 170.27Z" fill="url(#paint_linear_2_1678_0)" fill-opacity="1.000000" fill-rule="nonzero"/>
		<path id="path" d="M302.17 174.74C297.94 177.17 291.04 177.17 286.8 174.74C282.57 172.31 282.57 168.3 286.8 165.87C291.04 163.44 297.94 163.44 302.17 165.87C306.4 168.3 306.4 172.23 302.17 174.74Z" fill="url(#paint_linear_2_1680_0)" fill-opacity="1.000000" fill-rule="nonzero"/>
		<g opacity="0.500000">
			<path id="path" d="M302.17 174.27C297.94 176.7 291.04 176.7 286.8 174.27C284.76 173.09 283.75 171.6 283.67 170.03C283.59 171.68 284.61 173.4 286.8 174.74C291.04 177.17 297.94 177.17 302.17 174.74C304.36 173.48 305.46 171.76 305.31 170.03C305.23 171.52 304.21 173.09 302.17 174.27Z" fill="#FFFFFF" fill-opacity="1.000000" fill-rule="nonzero"/>
		</g>
		<path id="path" d="M287.35 189.1L265.64 189.1L265.64 227.55C265.64 229.11 266.74 230.76 268.85 232.02C273.09 234.45 279.98 234.45 284.22 232.02C286.33 230.76 287.43 229.19 287.43 227.55L287.43 189.1L287.35 189.1Z" fill="url(#paint_linear_2_1684_0)" fill-opacity="1.000000" fill-rule="nonzero"/>
		<path id="path" d="M287.35 189.1L265.64 189.1L265.64 227.55C265.64 229.11 266.74 230.76 268.85 232.02C273.09 234.45 279.98 234.45 284.22 232.02C286.33 230.76 287.43 229.19 287.43 227.55L287.43 189.1L287.35 189.1Z" fill="url(#paint_linear_2_1686_0)" fill-opacity="1.000000" fill-rule="nonzero"/>
		<path id="path" d="M284.22 193.49C279.98 195.92 273.09 195.92 268.85 193.49C264.62 191.06 264.62 187.06 268.85 184.62C273.09 182.19 279.98 182.19 284.22 184.62C288.45 187.06 288.45 191.06 284.22 193.49Z" fill="url(#paint_linear_2_1688_0)" fill-opacity="1.000000" fill-rule="nonzero"/>
		<g opacity="0.500000">
			<path id="path" d="M284.22 193.02C279.98 195.45 273.09 195.45 268.85 193.02C266.81 191.84 265.79 190.35 265.72 188.78C265.64 190.43 266.66 192.16 268.85 193.49C273.09 195.92 279.98 195.92 284.22 193.49C286.41 192.24 287.51 190.51 287.35 188.78C287.27 190.35 286.18 191.92 284.22 193.02Z" fill="#FFFFFF" fill-opacity="1.000000" fill-rule="nonzero"/>
		</g>
		<path id="path" d="M269.4 208.95L247.69 208.95L247.69 237.9C247.69 239.47 248.78 241.12 250.9 242.37C255.13 244.81 262.03 244.81 266.26 242.37C268.38 241.12 269.48 239.55 269.48 237.9L269.48 208.95L269.4 208.95Z" fill="url(#paint_linear_2_1692_0)" fill-opacity="1.000000" fill-rule="nonzero"/>
		<path id="path" d="M269.4 208.95L247.69 208.95L247.69 237.9C247.69 239.47 248.78 241.12 250.9 242.37C255.13 244.81 262.03 244.81 266.26 242.37C268.38 241.12 269.48 239.55 269.48 237.9L269.48 208.95L269.4 208.95Z" fill="url(#paint_linear_2_1694_0)" fill-opacity="1.000000" fill-rule="nonzero"/>
		<path id="path" d="M266.19 213.34C261.95 215.78 255.05 215.78 250.82 213.34C246.59 210.91 246.59 206.91 250.82 204.48C255.05 202.04 261.95 202.04 266.19 204.48C270.42 206.91 270.42 210.91 266.19 213.34Z" fill="url(#paint_linear_2_1696_0)" fill-opacity="1.000000" fill-rule="nonzero"/>
		<g opacity="0.500000">
			<path id="path" d="M266.19 212.87C261.95 215.3 255.05 215.3 250.82 212.87C248.78 211.7 247.76 210.2 247.68 208.63C247.61 210.28 248.63 212.01 250.82 213.34C255.05 215.78 261.95 215.78 266.19 213.34C268.38 212.09 269.48 210.36 269.32 208.63C269.24 210.2 268.22 211.77 266.19 212.87Z" fill="#FFFFFF" fill-opacity="1.000000" fill-rule="nonzero"/>
		</g>
		<path id="polygon" d="M171.48 130.88L169.37 132.29L169.13 130.72L171.17 129.38L171.48 130.88Z" fill="#34C6FF" fill-opacity="1.000000" fill-rule="nonzero"/>
		<path id="polygon" d="M173.13 141.39L171.01 142.72L169.6 133.7L171.72 132.37L173.13 141.39Z" fill="#34C6FF" fill-opacity="1.000000" fill-rule="nonzero"/>
		<path id="polygon" d="M173.92 146.41L171.88 147.75L171.25 144.14L173.37 142.8L173.92 146.41Z" fill="#34C6FF" fill-opacity="1.000000" fill-rule="nonzero"/>
		<path id="polygon" d="M174.78 151.67L172.66 153L172.11 149.39L174.23 148.06L174.78 151.67Z" fill="#34C6FF" fill-opacity="1.000000" fill-rule="nonzero"/>
		<path id="polygon" d="M175.4 133.94L173.29 135.27L172.74 131.66L174.86 130.33L175.4 133.94Z" fill="#34C6FF" fill-opacity="1.000000" fill-rule="nonzero"/>
		<path id="polygon" d="M176.5 140.84L174.39 142.17L173.52 136.84L175.64 135.5L176.5 140.84Z" fill="#34C6FF" fill-opacity="1.000000" fill-rule="nonzero"/>
		<path id="polygon" d="M177.52 147.2L175.4 148.53L174.7 143.98L176.82 142.64L177.52 147.2Z" fill="#34C6FF" fill-opacity="1.000000" fill-rule="nonzero"/>
		<path id="polygon" d="M175.64 156.85L173.52 158.18L172.97 154.57L175.01 153.24L175.64 156.85Z" fill="#34C6FF" fill-opacity="1.000000" fill-rule="nonzero"/>
		<path id="polygon" d="M174.62 128.91L172.5 130.25L172.27 128.68L174.31 127.34L174.62 128.91Z" fill="#34C6FF" fill-opacity="1.000000" fill-rule="nonzero"/>
		<path id="polygon" d="M177.99 160.93L174.31 163.2L174.07 161.71L177.76 159.36L177.99 160.93Z" fill="#34C6FF" fill-opacity="1.000000" fill-rule="nonzero"/>
	</g>
</svg>
