<svg width="434.199982" height="149.099976" viewBox="0 0 434.2 149.1" fill="none" xmlns="http://www.w3.org/2000/svg" xmlns:xlink="http://www.w3.org/1999/xlink">
	<desc>
			Created with Pixso.
	</desc>
	<defs>
		<radialGradient gradientTransform="translate(180.628 134.902) rotate(-170.209) scale(195.849 285.71)" cx="0.000000" cy="0.000000" r="1.000000" id="paint_radial_2_1715_0" gradientUnits="userSpaceOnUse">
			<stop stop-color="#FFFFFF"/>
			<stop offset="1.000000" stop-color="#FFFFFF" stop-opacity="0.000000"/>
		</radialGradient>
	</defs>
	<path id="path" d="M434.2 0.59L433.2 0L299.79 76.1C298.29 76.9 296.5 77.5 294.6 77.6C292.7 77.69 291 77.4 289.79 76.8L273.4 67.6C270.4 65.9 264.9 66.3 261.1 68.4L238.5 81.3C234.7 83.4 234.1 86.6 237.2 88.3L249.1 95C251.6 96.4 251.1 98.9 248 100.7L224.5 114.1C223 114.9 221.2 115.5 219.3 115.6C217.4 115.7 215.7 115.4 214.5 114.8L141.8 73.9C140.3 73.1 138.3 72.69 135.89 72.9C133.6 73.1 131.3 73.69 129.5 74.7L0 148.5L1 149.1L130.39 75.3C131.89 74.5 133.7 73.9 135.6 73.8C137.5 73.69 139.2 74 140.39 74.6L213.1 115.5C216.1 117.2 221.6 116.8 225.4 114.7L248.9 101.3C252.7 99.2 253.3 96 250.2 94.3L238.3 87.6C235.8 86.2 236.3 83.7 239.4 81.9L262 69C265.1 67.19 269.6 67 272 68.3L288.4 77.5C291.4 79.19 296.9 78.8 300.7 76.69L434.2 0.59Z" fill="url(#paint_radial_2_1715_0)" fill-opacity="0.300000" fill-rule="nonzero"/>
</svg>
